<svg width="21" height="20" viewBox="0 0 21 20" fill="none" xmlns="http://www.w3.org/2000/svg">
<g clip-path="url(#clip0_944_134)">
<path d="M19.3814 5.00002C18.8154 4.02537 11.867 0 10.7354 0C9.6041 0 2.65294 4.01528 2.09011 5.00002C1.52719 5.98477 1.52406 14.0156 2.09011 15.0005C2.65611 15.9848 9.60488 20 10.7354 20C11.8658 20 18.8154 15.9797 19.3811 15C19.9466 14.0203 19.947 5.97464 19.3814 5.00002ZM13.0779 16.1805C12.9232 16.1805 11.4798 14.7832 11.5935 14.6691C11.6275 14.6352 11.8381 14.6113 12.2791 14.5976C12.2791 13.5731 12.3021 11.9184 12.3158 11.2257C12.3174 11.1468 12.2986 11.0917 12.2986 10.9972H9.17632C9.17632 11.2745 9.1584 12.4112 9.22988 13.8441C9.23879 14.0214 9.16814 14.0768 9.00562 14.0761C8.60988 14.075 8.21383 14.0718 7.81774 14.073C7.65761 14.0734 7.58844 14.0132 7.59353 13.8344C7.62944 12.5281 7.70918 10.5523 7.5877 5.52694V5.40307C7.20996 5.38941 6.94783 5.36559 6.91344 5.33124C6.79935 5.21715 8.26266 3.81993 8.41696 3.81993C8.57166 3.81993 10.0252 5.21754 9.91188 5.33124C9.87788 5.3652 9.60327 5.38941 9.25679 5.40307V5.52655C9.16227 6.53242 9.17753 8.63552 9.1541 9.64335H12.2892C12.2892 9.46556 12.3045 8.2863 12.2424 6.37616C12.2384 6.24368 12.2795 6.17416 12.4068 6.17303C12.8392 6.1699 13.272 6.16794 13.7048 6.17064C13.8399 6.17146 13.8833 6.23785 13.8806 6.38081C13.738 13.8531 13.8548 13.3316 13.8548 14.5972C14.2013 14.6108 14.5118 14.6347 14.5459 14.6691C14.6584 14.7828 13.2326 16.1805 13.0779 16.1805Z" fill="#2EC866"/>
</g>
<defs>
<clipPath id="clip0_944_134">
<rect width="20" height="20" fill="white" transform="translate(0.416748)"/>
</clipPath>
</defs>
</svg>
